<svg xmlns="http://www.w3.org/2000/svg" xmlns:xlink="http://www.w3.org/1999/xlink" width="500" zoomAndPan="magnify" viewBox="0 0 375 374.999991" height="500" preserveAspectRatio="xMidYMid meet" version="1.0"><defs><g/><clipPath id="ec8203571d"><path d="M 0 0 L 375 0 L 375 375 L 0 375 Z M 0 0 " clip-rule="nonzero"/></clipPath><clipPath id="c12a5ce077"><rect x="0" width="375" y="0" height="375"/></clipPath><clipPath id="bad4d56e39"><rect x="0" width="375" y="0" height="375"/></clipPath></defs><rect x="-37.5" width="450" fill="#ffffff" y="-37.499999" height="449.999989" fill-opacity="1"/><rect x="-37.5" width="450" fill="#ffffff" y="-37.499999" height="449.999989" fill-opacity="1"/><g transform="matrix(1, 0, 0, 1, 0, 0)"><g clip-path="url(#bad4d56e39)"><g transform="matrix(1, 0, 0, 1, 0, 0)"><g clip-path="url(#c12a5ce077)"><g clip-path="url(#ec8203571d)"><path fill="#000000" d="M -34.296875 -3.785156 L 374.9375 -3.785156 L 374.9375 379.964844 L -34.296875 379.964844 Z M -34.296875 -3.785156 " fill-opacity="1" fill-rule="nonzero"/></g></g></g><g fill="#ffffff" fill-opacity="1"><g transform="translate(45.277381, 214.485573)"><g><path d="M 32.203125 -12.28125 L 11.015625 -12.28125 L 7.421875 0 L 1.0625 0 L 16.03125 -49.4375 L 27.1875 -49.4375 L 42.15625 0 L 35.8125 0 Z M 21.1875 -46.890625 L 12.640625 -17.796875 L 30.578125 -17.796875 L 22.03125 -46.890625 Z M 21.1875 -46.890625 "/></g></g></g><g fill="#ffffff" fill-opacity="1"><g transform="translate(93.872545, 214.485573)"><g><path d="M 6.703125 -49.4375 L 37.078125 -49.4375 L 37.078125 -43.921875 L 12.640625 -43.921875 L 12.640625 -27.546875 L 36.65625 -27.546875 L 36.65625 -22.03125 L 12.640625 -22.03125 L 12.640625 0 L 6.703125 0 Z M 6.703125 -49.4375 "/></g></g></g><g fill="#ffffff" fill-opacity="1"><g transform="translate(142.467709, 214.485573)"><g><path d="M 37.078125 0 L 31.140625 0 L 31.140625 -16.53125 C 31.140625 -17.75 30.859375 -18.6875 30.296875 -19.34375 C 29.734375 -20.007812 28.742188 -20.34375 27.328125 -20.34375 L 11.9375 -20.34375 L 11.9375 0 L 6 0 L 6 -49.4375 L 23.65625 -49.4375 C 26.195312 -49.4375 28.410156 -49.070312 30.296875 -48.34375 C 32.179688 -47.613281 33.742188 -46.632812 34.984375 -45.40625 C 36.234375 -44.1875 37.175781 -42.765625 37.8125 -41.140625 C 38.445312 -39.515625 38.765625 -37.804688 38.765625 -36.015625 L 38.765625 -33.90625 C 38.765625 -32.0625 38.257812 -30.222656 37.25 -28.390625 C 36.238281 -26.554688 34.675781 -25.144531 32.5625 -24.15625 L 32.5625 -23.3125 C 33.96875 -23.070312 35.070312 -22.503906 35.875 -21.609375 C 36.675781 -20.710938 37.078125 -19.441406 37.078125 -17.796875 Z M 11.9375 -25.84375 L 22.953125 -25.84375 C 26.296875 -25.84375 28.78125 -26.5625 30.40625 -28 C 32.03125 -29.4375 32.84375 -31.546875 32.84375 -34.328125 L 32.84375 -35.59375 C 32.84375 -38.09375 32.03125 -40.101562 30.40625 -41.625 C 28.78125 -43.15625 26.296875 -43.921875 22.953125 -43.921875 L 11.9375 -43.921875 Z M 11.9375 -25.84375 "/></g></g></g><g fill="#ffffff" fill-opacity="1"><g transform="translate(191.062873, 214.485573)"><g><path d="M 11.9375 -20.34375 L 11.9375 0 L 6 0 L 6 -49.4375 L 23.65625 -49.4375 C 26.195312 -49.4375 28.410156 -49.070312 30.296875 -48.34375 C 32.179688 -47.613281 33.742188 -46.632812 34.984375 -45.40625 C 36.234375 -44.1875 37.175781 -42.765625 37.8125 -41.140625 C 38.445312 -39.515625 38.765625 -37.804688 38.765625 -36.015625 L 38.765625 -33.90625 C 38.765625 -32.113281 38.445312 -30.390625 37.8125 -28.734375 C 37.175781 -27.085938 36.222656 -25.640625 34.953125 -24.390625 C 33.679688 -23.148438 32.101562 -22.164062 30.21875 -21.4375 C 28.34375 -20.707031 26.15625 -20.34375 23.65625 -20.34375 Z M 11.9375 -25.84375 L 22.953125 -25.84375 C 29.546875 -25.84375 32.84375 -28.671875 32.84375 -34.328125 L 32.84375 -35.59375 C 32.84375 -38.09375 32.03125 -40.101562 30.40625 -41.625 C 28.78125 -43.15625 26.296875 -43.921875 22.953125 -43.921875 L 11.9375 -43.921875 Z M 11.9375 -25.84375 "/></g></g></g><g fill="#ffffff" fill-opacity="1"><g transform="translate(239.658037, 214.485573)"><g><path d="M 21.890625 -4.515625 C 23.921875 -4.515625 25.648438 -4.851562 27.078125 -5.53125 C 28.515625 -6.21875 29.691406 -7.140625 30.609375 -8.296875 C 31.535156 -9.453125 32.21875 -10.769531 32.65625 -12.25 C 33.101562 -13.738281 33.328125 -15.304688 33.328125 -16.953125 L 33.328125 -17.796875 L 39.265625 -17.796875 L 39.265625 -16.953125 C 39.265625 -14.453125 38.882812 -12.109375 38.125 -9.921875 C 37.375 -7.734375 36.269531 -5.828125 34.8125 -4.203125 C 33.351562 -2.578125 31.539062 -1.304688 29.375 -0.390625 C 27.207031 0.523438 24.710938 0.984375 21.890625 0.984375 C 16.429688 0.984375 12.171875 -0.734375 9.109375 -4.171875 C 6.046875 -7.609375 4.515625 -12.617188 4.515625 -19.203125 L 4.515625 -30.234375 C 4.515625 -36.628906 6.046875 -41.59375 9.109375 -45.125 C 12.171875 -48.65625 16.429688 -50.421875 21.890625 -50.421875 C 24.710938 -50.421875 27.207031 -49.960938 29.375 -49.046875 C 31.539062 -48.128906 33.351562 -46.859375 34.8125 -45.234375 C 36.269531 -43.609375 37.375 -41.703125 38.125 -39.515625 C 38.882812 -37.328125 39.265625 -34.984375 39.265625 -32.484375 L 39.265625 -31.640625 L 33.328125 -31.640625 L 33.328125 -32.484375 C 33.285156 -34.085938 33.039062 -35.640625 32.59375 -37.140625 C 32.144531 -38.648438 31.460938 -39.984375 30.546875 -41.140625 C 29.628906 -42.296875 28.460938 -43.210938 27.046875 -43.890625 C 25.640625 -44.578125 23.921875 -44.921875 21.890625 -44.921875 C 18.078125 -44.921875 15.21875 -43.53125 13.3125 -40.75 C 11.40625 -37.96875 10.453125 -34.316406 10.453125 -29.796875 L 10.453125 -19.640625 C 10.453125 -14.785156 11.40625 -11.050781 13.3125 -8.4375 C 15.21875 -5.820312 18.078125 -4.515625 21.890625 -4.515625 Z M 21.890625 -4.515625 "/></g></g></g><g fill="#ffffff" fill-opacity="1"><g transform="translate(288.253201, 214.485573)"><g><path d="M 31.28125 -2.546875 L 32.140625 -2.546875 L 32.140625 -49.4375 L 38.0625 -49.4375 L 38.0625 0 L 26.203125 0 L 11.9375 -46.890625 L 11.09375 -46.890625 L 11.09375 0 L 5.15625 0 L 5.15625 -49.4375 L 17.015625 -49.4375 Z M 31.28125 -2.546875 "/></g></g></g></g></g></svg>